<svg xmlns="http://www.w3.org/2000/svg" width="256" height="144">
  <defs>
    <linearGradient id="a" x1="0" x2="1" y1="1" y2="0">
      <stop offset="0" stop-color="#b9f"/>
      <stop offset="1" stop-color="#f7c"/>
    </linearGradient>
    <path id="b" d="M3 32s17-4 29 4c0 0 2 15 10 15v-7s2 4 6 4 6-4 6-4v7c8 0 10-15 10-15 12-8 29-4 29-4-8 4-9 18-9 18-16 0-16 13-16 13-20-4-20 11-20 11s0-15-20-11c0 0 0-13-16-13 0 0-1-14-9-18"/>
  </defs>
  <path fill="#112" d="M0 0h256v144H0z"/>
  <g opacity=".4" transform="translate(128 72)">
    <circle r="60" fill="#b9f" opacity=".2"/>
    <path fill="#b9f" d="M30-52A60 60 0 0 1-30 52Z" opacity=".2"/>
    <circle r="42" fill="none" stroke="#b9f" stroke-width="8" opacity=".5"/>
    <circle r="38" fill="url(#a)" opacity=".8" transform="rotate(180)"/>
    <circle r="30" fill="url(#a)"/>
    <g fill="#64b" opacity=".3">
      <circle r="10" transform="translate(14 8)"/>
      <circle r="6" transform="translate(-16 10)"/>
      <circle r="5" transform="translate(5-19)"/>
      <circle r="2" transform="translate(7 24)"/>
    </g>
    <g fill="#223">
      <use href="#b" transform="rotate(-30 43-19) scale(.4)"/>
      <use href="#b" transform="rotate(30 41-85) scale(.3)"/>
      <use href="#b" transform="rotate(15-92-120) scale(.2)"/>
      <use href="#b" transform="rotate(-15 109 5) scale(.1)"/>
    </g>
  </g>
</svg>
